<?xml version="1.0" encoding="utf-8"?>
<!-- Generator: Adobe Illustrator 16.0.0, SVG Export Plug-In . SVG Version: 6.00 Build 0)  -->
<!DOCTYPE svg PUBLIC "-//W3C//DTD SVG 1.1//EN" "http://www.w3.org/Graphics/SVG/1.1/DTD/svg11.dtd">
<svg version="1.1" id="Layer_1" xmlns="http://www.w3.org/2000/svg" xmlns:xlink="http://www.w3.org/1999/xlink" x="0px" y="0px"
	 width="470px" height="353px" viewBox="0 0 470 353" enable-background="new 0 0 470 353" xml:space="preserve">
<path opacity="0.4" d="M83.125,353.492c0-1.523,0-3.048,0-4.571c0.236-0.616,0.581-1.213,0.691-1.851
	c1.479-8.562,2.677-17.184,4.442-25.688c2.469-11.897,5.226-23.74,8.104-35.548c2.038-8.357,4.486-16.615,6.738-24.921
	c1.04-3.837,3.326-6.286,7.325-7.196c3.951-0.9,7.831-2.104,11.759-3.108c14.559-3.72,29.196-7.162,43.663-11.214
	c8.116-2.272,15.456-6.308,21.412-12.586c3.455-3.641,7.59-6.397,12.275-8.398c1.448-0.618,3.178-2.212,3.462-3.624
	c0.961-4.775,0.431-9.505-1.567-14.099c-1.538-3.536-2.765-7.235-3.806-10.952c-1.277-4.56-2.489-8.992-5.303-13.027
	c-3.548-5.089-6.425-10.649-9.52-16.047c-0.489-0.854-0.82-1.915-0.857-2.894c-0.375-9.707-0.914-19.417-0.897-29.126
	c0.01-5.376,0.717-10.794,1.583-16.116c2.007-12.323,7.951-22.591,17.336-30.753c10.822-9.41,23.24-15.262,37.766-16.095
	c0.794-0.046,1.566-0.456,2.35-0.696c0.339,0,0.677,0,1.016,0c0.968,0.227,1.938,0.657,2.902,0.644
	c3.893-0.053,7.189,1.268,10.333,3.549c2.152,1.561,4.646,2.792,7.163,3.672c3.173,1.109,6.574,1.548,9.789,2.556
	c12.408,3.891,21.341,11.244,23.646,24.745c0.594,3.476,0.622,7.059,0.761,10.599c0.245,6.25,0.286,12.508,0.605,18.753
	c0.105,2.07,0.308,4.419,1.349,6.089c1.41,2.259,1.81,4.491,1.719,6.97c-0.36,9.923-3.73,18.774-9.339,26.908
	c-1.854,2.689-3.502,5.601-4.732,8.619c-1.523,3.733-2.311,7.764-3.781,11.521c-2.4,6.135-4.189,12.345-3.556,19.002
	c0.48,5.044,1.883,9.878,6.66,12.418c4.103,2.182,7.16,5.304,10.077,8.721c3.734,4.377,7.352,8.851,13.059,10.928
	c11.755,4.279,23.457,8.706,35.211,12.988c7.075,2.577,14.211,4.97,20.301,9.632c5.109,3.911,8.491,8.686,9.373,15.312
	c0.537,4.036,2.071,7.945,3.216,11.895c1.71,5.9,3.956,11.695,5.103,17.701c1.895,9.937,3.115,20.004,4.578,30.021
	c0.585,4.008,1.027,8.036,1.592,12.047c0.295,2.099-0.233,3.317-2.648,2.983c-0.664-0.092-1.352-0.014-2.029-0.014
	c-98.517,0-197.034-0.001-295.551,0.011C85.638,353.252,84.382,353.408,83.125,353.492z"/>
<path opacity="0.7" fill-rule="evenodd" clip-rule="evenodd" fill="#231F20" d="M226.896,178.198c0,0-7.727,2.188-10.303,8.266
	c-2.575,6.078,0.606,7.293,0.606,7.293s1.965-2.31,3.404-2.31s2.803,0.364,2.803,0.364s1.364-0.852,2.425-0.911
	c1.061-0.061,4.394,1.094,4.848,1.155c0.455,0.06,2.197,0.182,3.637-0.062c1.438-0.243,2.424,0.304,2.954-0.061
	c0.53-0.365,2.197-2.978,2.197-2.978s1.667,2.612,2.197,2.978c0.53,0.364,1.515-0.183,2.954,0.061s3.182,0.121,3.636,0.062
	c0.455-0.062,3.788-1.216,4.849-1.155c1.061,0.06,2.424,0.911,2.424,0.911s1.364-0.364,2.804-0.364c1.438,0,3.403,2.31,3.403,2.31
	s3.183-1.215,0.606-7.293c-2.575-6.078-10.302-8.266-10.302-8.266l-12.571,0.306L226.896,178.198z"/>
</svg>
