<?xml version="1.0" encoding="utf-8"?>
<!-- Generator: Adobe Illustrator 16.0.0, SVG Export Plug-In . SVG Version: 6.00 Build 0)  -->
<!DOCTYPE svg PUBLIC "-//W3C//DTD SVG 1.1//EN" "http://www.w3.org/Graphics/SVG/1.1/DTD/svg11.dtd">
<svg version="1.1" id="Layer_1" xmlns="http://www.w3.org/2000/svg" xmlns:xlink="http://www.w3.org/1999/xlink" x="0px" y="0px"
	 width="470px" height="353px" viewBox="0 0 470 353" enable-background="new 0 0 470 353" xml:space="preserve">
<g opacity="0.4">
	<path fill-rule="evenodd" clip-rule="evenodd" d="M232.859,207.115c0,0-9.543-1.636-25.086,7.362
		c-15.541,8.996-22.629-2.728-19.631-10.362c3-7.635,11.452-3.817,11.178-0.545c-0.271,3.271-2.725,4.09-2.725,4.09
		c5.211-0.452,9.608-5.643,6.8-10.623c-2.297-4.074-9.149-4.909-14.625-2.923c-15.25,5.527-12.808,26.918,1.6,30.289
		c5.062,1.185,10.832,0.411,15.454-0.636c6.936-1.574,14.474-3.826,18.855-3.837C232.466,219.907,232.859,207.115,232.859,207.115z"
		/>
	<path fill-rule="evenodd" clip-rule="evenodd" d="M233.538,207.115c0,0,9.544-1.636,25.085,7.362
		c15.543,8.996,22.631-2.728,19.633-10.362c-3.002-7.635-11.451-3.817-11.18-0.545c0.271,3.271,2.727,4.09,2.727,4.09
		c-5.211-0.452-9.609-5.643-6.801-10.623c2.297-4.074,9.148-4.909,14.625-2.923c15.25,5.527,12.809,26.918-1.602,30.289
		c-5.059,1.185-10.83,0.411-15.453-0.636c-6.934-1.574-14.473-3.826-18.854-3.837C233.931,219.907,233.538,207.115,233.538,207.115z
		"/>
</g>
</svg>
